<?xml version="1.0" standalone="no"?>
<!DOCTYPE svg PUBLIC "-//W3C//DTD SVG 20010904//EN"
 "http://www.w3.org/TR/2001/REC-SVG-20010904/DTD/svg10.dtd">
<svg version="1.0" xmlns="http://www.w3.org/2000/svg"
 width="500.000000pt" height="500.000000pt" viewBox="0 0 500.000000 500.000000"
 preserveAspectRatio="xMidYMid meet">

<g transform="translate(0.000000,500.000000) scale(0.100000,-0.100000)"
fill="#000000" stroke="none">
<path d="M1670 4883 c-696 -66 -1268 -515 -1489 -1169 -182 -541 -85 -1128
262 -1588 119 -157 301 -320 477 -428 497 -304 1145 -332 1664 -71 301 151
542 375 724 673 29 46 52 88 52 92 0 4 -16 8 -35 8 -29 0 -37 -5 -51 -33 -56
-110 -221 -295 -354 -397 -606 -463 -1473 -374 -1971 203 -84 96 -129 164
-195 292 -120 232 -170 481 -153 757 47 713 623 1289 1339 1337 551 37 1057
-227 1344 -701 26 -42 51 -89 57 -106 l10 -29 202 -7 c111 -4 210 -4 220 0 16
6 17 28 15 303 l-3 296 37 122 c61 199 93 273 143 328 49 53 56 75 26 75 -11
0 -23 5 -27 12 -5 8 -113 9 -433 3 -430 -8 -475 -9 -555 -4 -53 3 -76 -13 -76
-51 0 -18 7 -30 23 -37 33 -16 226 -161 303 -229 37 -32 107 -104 156 -158
l88 -100 0 -248 c0 -245 0 -248 -21 -248 -13 0 -23 8 -26 21 -4 12 -25 60 -48
108 -266 545 -776 905 -1377 970 -90 10 -247 12 -328 4z m303 -58 c265 -17
577 -133 817 -303 165 -117 370 -339 459 -497 l23 -40 -24 30 c-168 215 -370
375 -600 476 -568 250 -1229 126 -1667 -312 -210 -210 -348 -468 -412 -769
-27 -127 -33 -406 -11 -530 106 -594 520 -1052 1093 -1211 229 -64 534 -65
767 -5 87 23 196 63 264 97 80 41 84 36 10 -11 -176 -112 -404 -194 -637 -231
-102 -16 -376 -16 -480 0 -551 85 -1010 420 -1259 919 -172 344 -214 767 -116
1154 159 621 695 1111 1335 1219 85 14 253 26 315 22 25 -1 80 -5 123 -8z
m1587 -49 l155 -1 3 -255 c2 -140 0 -364 -3 -497 l-7 -243 -84 0 -84 0 0 265
0 264 -32 38 c-79 93 -292 294 -376 353 -50 36 -91 71 -91 78 -1 11 32 12 182
6 100 -4 252 -8 337 -8z m313 -2 c3 -3 -4 -21 -15 -40 -11 -18 -35 -75 -53
-126 l-34 -93 -1 126 c0 69 3 129 7 132 8 9 87 9 96 1z"/>
<path d="M2960 3686 c0 -3 18 -29 39 -57 38 -51 51 -85 51 -137 0 -25 4 -22
60 33 33 33 60 62 60 66 0 4 -22 9 -50 11 -38 4 -62 14 -105 47 -30 23 -55 39
-55 37z"/>
<path d="M4144 3659 c-56 -45 -73 -53 -127 -59 l-48 -5 66 -65 65 -64 0 45 c0
44 13 71 76 157 22 30 14 28 -32 -9z"/>
<path d="M3210 3493 c-63 -69 -120 -136 -127 -147 -9 -15 -12 -99 -13 -297 l0
-277 38 -45 c20 -25 75 -89 122 -141 l85 -94 256 -1 256 -1 124 137 124 137 3
260 c2 144 1 275 -2 291 -4 20 -47 75 -131 168 l-126 137 -247 0 -247 0 -115
-127z m533 15 l-19 -33 -150 -3 -150 -2 -17 35 -17 35 186 0 186 0 -19 -32z
m-398 -28 c8 -16 15 -33 15 -37 0 -5 -34 -47 -75 -93 l-75 -84 0 -216 0 -215
80 -88 c44 -48 80 -92 80 -98 0 -15 -30 -69 -38 -68 -4 0 -51 50 -104 110
l-98 109 0 250 0 250 73 81 c39 44 81 91 91 105 26 31 32 30 51 -6z m574 -69
l91 -99 0 -259 0 -259 -76 -85 c-41 -46 -86 -95 -99 -108 l-23 -24 -20 39 -20
39 84 93 84 92 0 212 0 211 -80 88 -80 88 17 35 c9 20 20 36 23 36 4 0 48 -45
99 -99z m-386 -38 c3 -5 -19 -73 -48 -153 l-53 -145 -73 0 -74 0 -3 71 -3 71
73 81 73 81 52 0 c28 1 54 -2 56 -6z m256 -70 l71 -78 0 -78 0 -78 -72 3 -73
3 -52 140 c-29 77 -52 146 -53 153 0 8 17 12 54 12 l54 0 71 -77z m-190 -155
c12 -34 21 -66 21 -70 0 -4 -22 -8 -49 -8 l-50 0 20 58 c27 80 28 82 33 82 2
0 14 -28 25 -62z m-199 -148 c0 -5 -10 -35 -21 -67 -12 -32 -26 -69 -31 -82
l-9 -24 -29 28 c-26 25 -30 36 -30 85 0 31 3 60 7 63 10 11 113 8 113 -3z
m460 -58 c0 -60 -3 -71 -25 -92 -14 -13 -26 -22 -28 -19 -11 14 -64 169 -59
174 3 3 29 5 59 5 l53 0 0 -68z m-168 -72 c36 -112 41 -132 28 -140 -21 -14
-283 -13 -297 1 -8 8 -1 42 24 122 49 157 41 147 128 147 l74 0 43 -130z m28
-262 c11 -18 20 -36 20 -40 0 -5 -77 -8 -170 -8 l-170 0 20 40 20 40 130 0
130 0 20 -32z"/>
<path d="M2970 3296 c0 -7 -18 -41 -40 -73 -31 -46 -53 -67 -97 -91 -106 -55
-233 -69 -753 -78 -204 -4 -369 -8 -368 -10 2 -1 166 -5 365 -8 349 -5 547
-17 643 -37 25 -5 74 -23 110 -40 65 -31 112 -81 139 -149 7 -18 10 53 10 238
1 144 -1 262 -4 262 -3 0 -5 -6 -5 -14z"/>
<path d="M4165 3046 l0 -264 23 49 c35 73 112 152 174 179 43 18 77 23 195 28
79 3 141 7 138 10 -3 3 -67 9 -143 12 -110 6 -147 12 -190 30 -61 26 -145 112
-174 178 -10 23 -20 42 -21 42 -1 0 -2 -119 -2 -264z"/>
<path d="M3050 2608 c0 -52 -13 -86 -51 -137 -21 -28 -39 -54 -39 -56 0 -3 21
11 47 31 56 43 83 54 129 54 19 0 34 4 34 8 0 4 -27 34 -60 67 -56 55 -60 58
-60 33z"/>
<path d="M4030 2565 l-64 -65 42 0 c44 0 108 -27 132 -55 7 -9 23 -21 34 -27
20 -11 20 -11 3 13 -62 87 -72 106 -77 151 l-5 49 -65 -66z"/>
<path d="M3470 2233 l0 -166 -39 -51 c-104 -134 -366 -360 -448 -386 -53 -17
-59 -25 -39 -54 l16 -26 978 0 c747 0 981 3 990 12 9 9 12 69 12 210 l0 198
-39 0 c-37 0 -39 -2 -69 -63 -42 -86 -118 -160 -208 -203 -132 -63 -136 -64
-501 -64 l-333 0 0 380 0 380 -160 0 -160 0 0 -167z m250 -243 l0 -350 -90 0
-90 0 2 350 2 350 88 0 88 0 0 -350z m-253 -347 c-2 -2 -75 -2 -162 -1 l-158
3 59 46 c33 26 104 92 159 147 l100 101 3 -146 c1 -80 1 -148 -1 -150z m1393
72 l0 -75 -87 0 -88 0 34 21 c18 11 56 44 85 73 28 30 52 54 54 55 1 1 2 -33
2 -74z"/>
<path d="M392 1192 c-71 -26 -114 -63 -155 -137 -31 -57 -31 -182 0 -241 28
-53 71 -96 120 -120 53 -26 193 -26 243 0 45 24 100 76 100 95 0 10 -11 4 -32
-17 -78 -75 -197 -81 -271 -14 -87 78 -88 307 -1 389 87 81 237 37 279 -83 14
-38 14 -37 15 54 0 82 -2 92 -14 79 -12 -11 -25 -12 -58 -5 -93 19 -171 19
-226 0z"/>
<path d="M1013 1201 c-58 -15 -124 -61 -153 -108 -100 -157 -26 -365 145 -413
62 -17 169 -9 221 18 85 43 138 137 137 242 -1 153 -98 256 -250 265 -38 2
-82 1 -100 -4z m167 -46 c46 -44 65 -105 65 -215 0 -108 -21 -183 -60 -220
-19 -18 -40 -25 -83 -27 -73 -5 -110 17 -143 84 -21 42 -24 63 -24 163 0 104
3 121 25 164 32 63 77 89 143 83 35 -3 56 -12 77 -32z"/>
<path d="M2821 1150 c0 -47 2 -51 10 -30 20 50 38 60 106 60 l63 0 0 -239 c0
-250 -1 -253 -45 -264 -11 -2 36 -5 105 -5 69 0 116 3 105 5 -44 11 -45 14
-45 264 l0 239 61 0 c68 0 96 -11 109 -43 7 -18 9 -13 9 23 l1 45 -240 0 -240
0 1 -55z"/>
<path d="M3849 973 c-84 -237 -104 -277 -143 -293 -14 -6 5 -9 59 -9 55 0 73
3 58 9 -34 14 -36 42 -8 121 14 40 25 74 25 76 0 2 38 3 83 3 l84 0 27 -70
c33 -83 32 -121 -4 -131 -14 -4 34 -7 105 -8 119 0 127 1 98 14 -17 7 -38 24
-46 37 -8 13 -54 128 -103 255 l-89 233 -31 0 -31 0 -84 -237z m109 33 c18
-45 32 -88 32 -95 0 -7 -24 -11 -71 -11 -53 0 -70 3 -67 13 3 6 18 49 34 94
16 46 32 83 35 83 3 0 20 -38 37 -84z"/>
<path d="M1562 1171 l32 -28 -22 -203 c-22 -211 -32 -242 -75 -260 -15 -6 6
-9 68 -9 69 1 84 3 64 10 -45 17 -51 46 -39 203 6 78 13 157 16 176 l6 35 13
-25 c8 -14 49 -107 92 -207 43 -101 81 -183 84 -183 3 0 23 42 43 93 110 270
139 338 142 334 2 -1 10 -88 19 -192 13 -166 13 -191 0 -211 -8 -12 -25 -25
-37 -27 -13 -2 33 -5 102 -5 81 0 117 2 103 8 -12 5 -27 18 -33 29 -5 11 -18
117 -27 236 -14 171 -15 220 -5 236 12 18 9 19 -52 19 l-63 0 -68 -167 c-37
-93 -71 -172 -75 -176 -4 -5 -42 71 -85 167 l-78 176 -78 0 -79 0 32 -29z"/>
<path d="M2350 1181 c6 -12 10 -110 10 -249 0 -240 -1 -244 -45 -255 -11 -2
68 -5 176 -6 196 -1 197 -1 203 22 3 12 6 38 6 57 l0 35 -19 -35 c-22 -42 -76
-64 -135 -57 -62 9 -71 24 -74 139 l-4 100 72 -4 c61 -3 75 -7 91 -27 l19 -23
0 63 c-1 53 -3 61 -12 44 -18 -31 -28 -35 -100 -35 l-68 0 0 115 0 115 78 0
c86 0 93 -3 115 -45 l16 -30 1 48 0 47 -170 0 c-166 0 -170 -1 -160 -19z"/>
<path d="M4384 1184 c14 -13 16 -50 16 -248 0 -244 -1 -248 -45 -259 -11 -2
71 -5 181 -6 l201 -1 7 38 c11 70 8 78 -17 41 -38 -57 -162 -77 -198 -32 -20
24 -20 443 0 466 12 16 6 17 -73 17 -80 0 -86 -1 -72 -16z"/>
<path d="M3386 1040 c-35 -39 -36 -42 -36 -124 0 -83 1 -85 35 -120 33 -34 38
-36 103 -36 64 0 70 2 100 33 31 32 32 35 32 128 0 94 0 95 -33 127 -30 29
-38 32 -99 32 -64 0 -67 -1 -102 -40z m90 -6 c-3 -9 -9 -27 -12 -40 -8 -32
-26 -26 -36 11 -9 36 -3 45 29 45 19 0 24 -4 19 -16z m72 8 c9 -6 10 -16 1
-40 -6 -18 -14 -32 -18 -32 -6 0 -31 58 -31 73 0 10 32 8 48 -1z m-129 -83
c10 -33 10 -50 0 -85 -8 -24 -18 -43 -24 -41 -5 2 -11 40 -13 85 -2 65 0 82
11 82 8 0 19 -19 26 -41z m90 -1 c10 -32 10 -50 1 -85 -7 -23 -16 -43 -21 -43
-8 0 -29 64 -29 91 0 23 21 79 29 79 4 0 13 -19 20 -42z m81 -43 c0 -47 -4
-85 -9 -85 -4 0 -14 20 -21 43 -9 35 -9 53 1 85 7 23 16 42 21 42 4 0 8 -38 8
-85z m-125 -81 c8 -20 15 -38 15 -40 0 -7 -49 -4 -53 4 -5 8 11 72 18 72 3 0
12 -16 20 -36z m83 -3 c12 -34 8 -41 -25 -41 -27 0 -26 -2 -12 39 14 39 24 39
37 2z"/>
<path d="M3273 939 c-18 -12 -33 -23 -33 -25 0 -7 62 -36 67 -31 2 3 3 21 1
41 l-3 35 -32 -20z"/>
<path d="M3670 921 c0 -46 4 -48 43 -22 l28 18 -23 15 c-49 31 -48 31 -48 -11z"/>
<path d="M4640 503 c-31 -12 -50 -37 -50 -68 0 -40 21 -59 85 -77 43 -12 50
-17 53 -41 2 -16 -2 -35 -9 -43 -15 -19 -89 -18 -117 2 -20 13 -22 13 -22 0 0
-23 33 -36 89 -36 42 0 53 4 70 26 41 52 22 94 -52 115 -56 17 -67 26 -67 60
0 22 6 32 26 39 26 10 70 4 92 -13 8 -7 12 -5 12 7 0 27 -67 45 -110 29z"/>
<path d="M220 370 l0 -130 75 0 c43 0 75 4 75 10 0 6 -27 10 -60 10 l-60 0 0
120 c0 100 -2 120 -15 120 -13 0 -15 -21 -15 -130z"/>
<path d="M800 410 c0 -55 6 -104 14 -124 25 -59 116 -70 156 -18 17 21 20 40
20 128 0 86 -3 104 -15 104 -12 0 -15 -19 -15 -108 0 -121 -5 -132 -60 -132
-60 0 -70 20 -70 138 0 84 -3 102 -15 102 -12 0 -15 -17 -15 -90z"/>
<path d="M1486 453 c15 -27 32 -56 38 -65 8 -13 1 -30 -27 -76 -39 -64 -42
-72 -28 -72 6 0 25 25 43 55 18 30 35 55 38 55 3 0 18 -22 33 -50 15 -27 32
-52 38 -56 24 -15 19 9 -15 64 -20 33 -36 64 -36 68 0 5 16 33 35 61 38 56 40
63 25 63 -6 0 -24 -22 -41 -50 -17 -27 -34 -50 -38 -50 -4 0 -20 23 -36 50
-16 28 -35 50 -43 50 -10 0 -6 -14 14 -47z"/>
<path d="M2092 396 c3 -56 11 -112 17 -124 13 -24 66 -42 105 -35 52 10 66 44
66 159 0 57 -4 104 -9 104 -5 0 -10 -47 -13 -104 -4 -119 -12 -136 -69 -136
-58 0 -69 23 -69 142 0 84 -2 98 -16 98 -15 0 -16 -12 -12 -104z"/>
<path d="M2760 370 c0 -109 2 -130 15 -130 12 0 15 13 15 55 0 52 1 55 25 55
17 0 36 -15 67 -54 24 -30 51 -55 62 -55 14 -1 8 11 -28 54 l-47 55 25 22 c36
33 42 68 16 101 -19 24 -28 27 -86 27 l-64 0 0 -130z m124 94 c20 -20 20 -43
0 -72 -11 -16 -25 -22 -55 -22 l-39 0 0 55 0 55 39 0 c23 0 46 -7 55 -16z"/>
<path d="M3420 490 c0 -5 9 -10 20 -10 19 0 20 -7 20 -110 0 -103 -1 -110 -20
-110 -11 0 -20 -4 -20 -10 0 -5 23 -10 50 -10 28 0 50 5 50 10 0 6 -9 10 -20
10 -19 0 -20 7 -20 110 0 103 1 110 20 110 11 0 20 5 20 10 0 6 -22 10 -50 10
-27 0 -50 -4 -50 -10z"/>
<path d="M3970 370 l0 -130 80 0 c47 0 80 4 80 10 0 6 -28 10 -65 10 l-65 0 0
55 0 55 65 0 c51 0 65 3 65 15 0 12 -14 15 -65 15 l-65 0 0 40 0 40 65 0 c37
0 65 4 65 10 0 6 -33 10 -80 10 l-80 0 0 -130z"/>
</g>
</svg>
